<svg width="223" height="223" viewBox="0 0 223 223" fill="none" xmlns="http://www.w3.org/2000/svg">
<circle cx="111.5" cy="111.5" r="111.5" fill="url(#paint0_linear)"/>
<path d="M99.4634 163H77.1434C75.3194 163 73.9754 162.616 73.1114 161.848C72.3434 160.984 71.9594 159.64 71.9594 157.816V64.504C71.9594 62.68 72.3434 61.384 73.1114 60.616C73.9754 59.752 75.3194 59.32 77.1434 59.32H121.207C134.263 59.32 143.191 61.912 147.991 67.096C152.791 72.28 155.191 79.048 155.191 87.4V105.832C155.191 114.184 152.791 120.952 147.991 126.136C143.191 131.32 134.263 133.912 121.207 133.912H104.647V157.816C104.647 159.64 104.215 160.984 103.351 161.848C102.583 162.616 101.287 163 99.4634 163ZM104.359 86.248V107.992H117.319C120.103 107.992 121.927 107.272 122.791 105.832C123.655 104.392 124.087 102.76 124.087 100.936V93.304C124.087 91.48 123.655 89.848 122.791 88.408C121.927 86.968 120.103 86.248 117.319 86.248H104.359Z" fill="white"/>
<defs>
<linearGradient id="paint0_linear" x1="254" y1="9.18125e-07" x2="-49" y2="223" gradientUnits="userSpaceOnUse">
<stop stop-color="#5B2D87"/>
<stop offset="1" stop-color="#1B0449"/>
</linearGradient>
</defs>
</svg>
